<svg xmlns="http://www.w3.org/2000/svg" xmlns:xlink="http://www.w3.org/1999/xlink" width="500" zoomAndPan="magnify" viewBox="0 0 375 374.999991" height="500" preserveAspectRatio="xMidYMid meet" version="1.2"><defs><clipPath id="46e21dc620"><path d="M 2 21.328125 L 373 21.328125 L 373 353 L 2 353 Z M 2 21.328125 "/></clipPath></defs><g id="032a21ff38"><rect x="0" width="375" y="0" height="374.999991" style="fill:#ffffff;fill-opacity:1;stroke:none;"/><rect x="0" width="375" y="0" height="374.999991" style="fill:#ffffff;fill-opacity:1;stroke:none;"/><g clip-rule="nonzero" clip-path="url(#46e21dc620)"><path style=" stroke:none;fill-rule:nonzero;fill:#000000;fill-opacity:1;" d="M 184.898438 21.183594 C 180.324219 21.445312 175.738281 22.457031 171.472656 24.390625 C 168.542969 25.710938 165.960938 27.585938 163.554688 29.664062 C 160.753906 30.074219 157.976562 30.824219 155.453125 32.113281 C 149.816406 34.988281 145.464844 39.839844 142.914062 45.503906 C 139.945312 52.082031 139.542969 59.09375 139.398438 65.597656 C 139.289062 70.550781 139.398438 75.507812 139.59375 80.46875 C 139.332031 80.636719 139.078125 80.769531 138.800781 81 C 137.800781 81.804688 136.015625 83.261719 135.007812 85.699219 C 134.089844 87.914062 134.199219 89.929688 134.234375 90.957031 C 134.308594 93.371094 134.5 95.777344 134.855469 98.199219 C 135.59375 103.1875 137.035156 108.804688 140.871094 113.527344 C 142.050781 114.972656 143.445312 116.058594 144.832031 117.074219 C 146.105469 121.542969 147.710938 126.066406 150.472656 130.316406 C 155.78125 138.492188 163.867188 144.445312 172.9375 147.449219 C 177.394531 148.929688 182.074219 149.710938 186.800781 149.726562 C 186.800781 149.726562 186.808594 149.726562 186.808594 149.726562 L 186.859375 149.726562 C 186.859375 149.726562 186.867188 149.726562 186.878906 149.726562 C 191.605469 149.710938 196.285156 148.921875 200.742188 147.449219 C 209.8125 144.445312 217.898438 138.492188 223.207031 130.316406 C 225.765625 126.378906 227.347656 122.199219 228.617188 118.058594 C 230.613281 116.824219 232.5625 115.433594 234.105469 113.527344 C 237.933594 108.804688 239.394531 103.1875 240.136719 98.199219 C 240.5 95.777344 240.683594 93.371094 240.757812 90.957031 C 240.792969 89.929688 240.910156 87.894531 239.984375 85.683594 C 238.96875 83.246094 237.191406 81.804688 236.191406 81 C 236.105469 80.929688 236.015625 80.878906 235.929688 80.820312 C 236.082031 79.804688 236.34375 78.804688 236.460938 77.785156 C 237.109375 71.878906 237.316406 65.832031 236.410156 59.742188 C 235.515625 53.644531 233.488281 47.5625 229.949219 42.265625 C 224.378906 33.921875 215.703125 28.496094 206.792969 25.078125 C 201.316406 22.976562 195.5 21.496094 189.453125 21.203125 C 187.960938 21.109375 186.429688 21.101562 184.898438 21.183594 Z M 62.277344 32.113281 C 29.210938 32.113281 2.398438 58.917969 2.398438 91.976562 C 2.398438 125.039062 29.210938 151.839844 62.277344 151.839844 C 95.34375 151.839844 122.160156 125.03125 122.160156 91.976562 C 122.160156 58.917969 95.351562 32.113281 62.277344 32.113281 Z M 312.722656 32.113281 C 279.648438 32.113281 252.839844 58.917969 252.839844 91.976562 C 252.839844 125.03125 279.65625 151.839844 312.722656 151.839844 C 345.789062 151.839844 372.601562 125.039062 372.601562 91.976562 C 372.601562 58.910156 345.789062 32.113281 312.722656 32.113281 Z M 167.070312 50.757812 C 171.253906 55.140625 176.167969 58.816406 181.710938 61.324219 C 188.957031 64.597656 197.042969 66.007812 204.984375 65.304688 C 209.324219 64.914062 213.332031 63.921875 217.160156 63.25 C 218.453125 63.023438 219.261719 63.066406 219.539062 63.148438 C 219.734375 63.21875 220.164062 63.460938 220.507812 63.921875 C 220.878906 64.410156 221.265625 65.152344 221.644531 66.078125 C 223.433594 70.441406 224.285156 75.226562 224.46875 80.074219 L 224.570312 80.074219 C 224.570312 80.207031 224.554688 80.335938 224.554688 80.46875 C 224.503906 82.664062 225.648438 84.707031 227.542969 85.808594 C 228.644531 86.449219 229.6875 87.15625 230.644531 87.929688 C 231.503906 88.621094 231.664062 88.820312 231.78125 89.097656 C 231.898438 89.351562 231.933594 89.542969 231.898438 90.679688 C 231.832031 92.800781 231.636719 94.867188 231.34375 96.90625 C 230.714844 101.167969 229.542969 105.082031 227.222656 107.949219 C 226.261719 109.132812 224.925781 110.210938 223.324219 111.101562 C 221.953125 111.867188 220.945312 113.148438 220.5 114.652344 C 219.363281 118.5625 217.914062 122.214844 215.777344 125.496094 C 211.648438 131.855469 205.210938 136.640625 197.984375 139.027344 C 194.398438 140.214844 190.636719 140.828125 186.878906 140.855469 L 186.828125 140.855469 C 183.058594 140.835938 179.296875 140.214844 175.722656 139.027344 C 168.492188 136.632812 162.058594 131.855469 157.925781 125.496094 C 155.644531 121.980469 154.132812 118.035156 152.996094 113.792969 C 152.625 112.421875 151.773438 111.230469 150.613281 110.429688 C 149.402344 109.589844 148.453125 108.773438 147.785156 107.949219 C 145.464844 105.089844 144.296875 101.167969 143.664062 96.90625 C 143.363281 94.867188 143.183594 92.800781 143.125 90.679688 C 143.09375 89.554688 143.117188 89.359375 143.226562 89.097656 C 143.34375 88.820312 143.503906 88.621094 144.363281 87.929688 C 144.800781 87.578125 145.5 87.121094 146.433594 86.515625 C 148.191406 85.382812 149.234375 83.402344 149.175781 81.308594 C 149.109375 78.972656 149.082031 76.71875 149.023438 74.429688 L 149.007812 74.429688 C 148.535156 67.800781 151.84375 60.492188 156.351562 56.472656 C 159.347656 53.695312 163.109375 51.734375 167.070312 50.757812 Z M 38.382812 59.363281 C 39.839844 59.464844 41.234375 60.085938 42.296875 61.140625 L 48.949219 67.777344 L 59.621094 78.457031 L 62.277344 81.117188 L 64.953125 78.457031 L 75.621094 67.777344 L 82.261719 61.140625 C 83.664062 59.734375 85.675781 59.09375 87.636719 59.433594 C 89.597656 59.769531 91.304688 61.0625 92.15625 62.847656 L 94.359375 67.464844 L 94.359375 67.480469 C 95.460938 69.792969 94.972656 72.628906 93.15625 74.445312 L 87.730469 79.878906 L 75.867188 91.757812 C 75.621094 92.007812 75.285156 92.152344 74.933594 92.152344 L 75.445312 92.152344 L 74.394531 93.203125 L 75.839844 94.648438 L 86.492188 105.316406 L 93.132812 111.953125 C 94.527344 113.347656 95.210938 115.34375 94.871094 117.308594 C 94.535156 119.261719 93.265625 120.953125 91.492188 121.8125 L 86.835938 124.046875 C 85.960938 124.46875 85.011719 124.644531 84.09375 124.621094 C 82.53125 124.585938 80.964844 123.988281 79.820312 122.84375 L 74.394531 117.410156 L 62.511719 105.566406 C 62.429688 105.441406 62.371094 105.308594 62.335938 105.15625 C 62.277344 105.308594 62.183594 105.449219 62.074219 105.566406 L 50.1875 117.410156 L 44.753906 122.84375 C 43.609375 123.988281 42.058594 124.585938 40.496094 124.621094 C 39.578125 124.636719 38.609375 124.46875 37.734375 124.046875 L 33.097656 121.8125 C 31.324219 120.953125 30.042969 119.261719 29.714844 117.308594 C 29.378906 115.351562 30.054688 113.347656 31.441406 111.953125 L 38.078125 105.316406 L 48.75 94.648438 L 50.195312 93.203125 L 49.128906 92.152344 L 49.640625 92.152344 C 49.296875 92.152344 48.957031 92 48.722656 91.757812 L 36.84375 79.878906 L 31.40625 74.445312 C 29.597656 72.628906 29.128906 69.792969 30.222656 67.480469 L 30.222656 67.464844 L 32.441406 62.847656 C 33.277344 61.0625 34.96875 59.769531 36.925781 59.433594 C 37.414062 59.347656 37.902344 59.332031 38.382812 59.363281 Z M 343.222656 60.945312 C 346.519531 60.863281 348.019531 65.042969 345.425781 67.085938 C 336.3125 74.277344 328.371094 82.890625 322.078125 92.613281 C 317.25 100.074219 313.320312 108.132812 310.527344 116.570312 C 309.375 120.398438 305.832031 123.011719 301.835938 123.011719 C 301.667969 123.011719 301.523438 122.972656 301.355469 122.964844 C 300.941406 122.953125 300.53125 122.914062 300.136719 122.84375 C 300.042969 122.828125 299.949219 122.804688 299.855469 122.777344 C 297.214844 122.257812 294.875 120.617188 293.546875 118.210938 L 279.707031 96.03125 C 279.023438 94.859375 278.6875 93.523438 278.6875 92.167969 C 278.6875 87.996094 282.019531 84.617188 286.203125 84.546875 C 286.242188 84.546875 286.292969 84.546875 286.335938 84.546875 C 288.691406 84.546875 290.9375 85.625 292.386719 87.492188 L 299.648438 97.003906 C 301.902344 92.992188 304.433594 89.148438 307.269531 85.523438 C 313.570312 77.464844 321.355469 70.359375 330.585938 65.597656 C 334.363281 63.652344 338.34375 62.140625 342.414062 61.0625 C 342.675781 60.996094 342.960938 60.945312 343.222656 60.945312 Z M 150.132812 150.164062 C 143.144531 150.601562 136.226562 151.109375 129.597656 151.753906 C 114.59375 153.035156 101.8125 163.167969 97.109375 177.46875 C 96.910156 178.082031 96.722656 178.714844 96.554688 179.34375 C 95.132812 183.84375 93.921875 188.429688 92.902344 193.097656 C 111.660156 197.699219 129.628906 205.445312 145.734375 216.179688 C 161.351562 226.589844 174.855469 240.082031 185.632812 255.59375 C 186.246094 255.59375 186.859375 255.644531 187.476562 255.644531 L 187.535156 255.644531 C 188.449219 255.644531 189.34375 255.585938 190.257812 255.578125 C 200.9375 240.210938 213.808594 226.480469 229.273438 216.179688 C 245.378906 205.445312 263.359375 197.699219 282.105469 193.097656 C 281.085938 188.429688 279.875 183.84375 278.453125 179.34375 C 278.277344 178.714844 278.089844 178.074219 277.898438 177.453125 C 273.1875 163.152344 260.398438 153.035156 245.394531 151.753906 C 238.757812 151.097656 231.867188 150.59375 224.875 150.164062 C 222.527344 155.40625 219.84375 160.503906 216.738281 165.347656 C 213.042969 171.125 208.8125 176.558594 204.183594 181.617188 C 202.054688 183.9375 199.800781 186.132812 197.511719 188.285156 L 193.910156 169.535156 L 198.015625 164.757812 C 200.152344 162.277344 199.886719 158.535156 197.394531 156.390625 C 196.324219 155.457031 194.945312 154.953125 193.515625 154.953125 L 181.484375 154.953125 C 178.203125 154.953125 175.542969 157.601562 175.535156 160.875 C 175.535156 162.304688 176.050781 163.675781 176.972656 164.757812 L 181.082031 169.535156 L 177.480469 188.292969 C 175.191406 186.140625 172.9375 183.929688 170.808594 181.605469 C 166.179688 176.558594 161.949219 171.117188 158.253906 165.339844 C 155.164062 160.503906 152.472656 155.40625 150.132812 150.164062 Z M 67.03125 165.195312 C 64.171875 165.472656 61.394531 166.5 59.519531 168.199219 L 6.6875 216.261719 L 6.6875 216.277344 C 4.257812 218.484375 2.582031 222.050781 2.429688 225.328125 C 2.429688 225.347656 2.429688 225.347656 2.429688 225.363281 C 2.414062 225.675781 2.398438 225.867188 2.398438 226.054688 C 2.398438 226.101562 2.40625 226.171875 2.414062 226.222656 C 2.488281 229.601562 4.1875 233.269531 6.6875 235.53125 L 59.519531 283.570312 L 59.519531 283.585938 C 63.253906 286.984375 70.667969 287.691406 75 285.085938 C 79.316406 282.46875 82.132812 275.539062 80.863281 270.660156 L 74.847656 247.476562 C 98.363281 253.164062 120.601562 264.121094 139.230469 279.589844 C 150.160156 288.667969 159.800781 299.265625 167.886719 310.925781 C 170.023438 297.085938 174.289062 283.585938 180.753906 271.105469 C 181.257812 270.136719 181.835938 269.210938 182.359375 268.261719 C 171.84375 250.851562 157.066406 235.996094 140.0625 224.65625 C 120.863281 211.863281 98.761719 203.46875 75.925781 200.09375 L 80.855469 181.152344 C 80.855469 181.152344 80.855469 181.144531 80.855469 181.136719 C 82.125 176.257812 79.308594 169.328125 74.992188 166.710938 C 72.835938 165.40625 69.890625 164.925781 67.03125 165.195312 Z M 307.96875 165.195312 C 305.109375 164.917969 302.171875 165.398438 300 166.710938 C 295.675781 169.328125 292.855469 176.257812 294.136719 181.136719 C 294.136719 181.136719 294.136719 181.144531 294.136719 181.144531 L 299.066406 200.085938 C 276.230469 203.460938 254.128906 211.847656 234.929688 224.648438 C 215.703125 237.457031 199.304688 254.746094 188.71875 275.183594 C 177.285156 297.265625 172.902344 322.917969 176.25 347.554688 C 176.5625 350.515625 179.078125 352.945312 182.046875 352.945312 C 184.582031 352.945312 186.851562 351.308594 187.617188 348.894531 C 197.152344 322.078125 213.84375 297.800781 235.769531 279.601562 C 254.40625 264.121094 276.636719 253.164062 300.152344 247.484375 L 294.136719 270.667969 C 292.875 275.546875 295.683594 282.476562 300 285.09375 C 304.332031 287.707031 311.746094 287.003906 315.480469 283.59375 L 315.480469 283.578125 L 368.3125 235.542969 C 370.8125 233.269531 372.5 229.609375 372.585938 226.230469 C 372.585938 226.179688 372.601562 226.113281 372.601562 226.0625 C 372.601562 225.882812 372.585938 225.683594 372.570312 225.371094 C 372.570312 225.355469 372.570312 225.355469 372.570312 225.339844 C 372.417969 222.050781 370.742188 218.492188 368.3125 216.289062 L 368.3125 216.269531 L 315.480469 168.214844 C 313.605469 166.507812 310.828125 165.472656 307.96875 165.195312 Z M 307.96875 165.195312 "/></g></g></svg>