<svg xmlns="http://www.w3.org/2000/svg" xmlns:xlink="http://www.w3.org/1999/xlink" width="500" zoomAndPan="magnify" viewBox="0 0 375 374.999991" height="500" preserveAspectRatio="xMidYMid meet" version="1.2"><defs><clipPath id="9648bbee84"><path d="M 160 45.703125 L 215 45.703125 L 215 100 L 160 100 Z M 160 45.703125 "/></clipPath></defs><g id="6fb6499a74"><rect x="0" width="375" y="0" height="374.999991" style="fill:#ffffff;fill-opacity:1;stroke:none;"/><rect x="0" width="375" y="0" height="374.999991" style="fill:#ffffff;fill-opacity:1;stroke:none;"/><path style=" stroke:none;fill-rule:nonzero;fill:#000000;fill-opacity:1;" d="M 319.199219 161.378906 C 318.929688 161.378906 318.667969 161.398438 318.40625 161.425781 C 317.300781 161.476562 316.222656 161.609375 315.175781 161.808594 C 315.175781 161.828125 315.179688 161.847656 315.179688 161.863281 C 315.167969 166.777344 314.125 171.355469 312.09375 175.503906 C 309.636719 180.496094 305.859375 184.386719 301.171875 186.757812 C 300.464844 187.113281 299.710938 187.402344 298.9375 187.65625 L 298.9375 189.707031 C 299.285156 190.917969 299.734375 192.109375 300.300781 193.265625 C 301.820312 196.371094 304.3125 199.292969 307.847656 201.074219 C 309.289062 201.8125 310.90625 202.132812 312.285156 202.132812 C 312.3125 202.132812 312.335938 202.132812 312.359375 202.128906 C 315.902344 202.027344 317.894531 200.816406 319.820312 199.871094 C 325.375 196.847656 330.605469 193.097656 339.109375 193.058594 C 340.460938 193.058594 341.890625 193.160156 343.429688 193.390625 C 347.351562 193.976562 351.003906 191.277344 351.597656 187.359375 C 352.183594 183.4375 349.484375 179.789062 345.566406 179.199219 C 343.320312 178.859375 341.171875 178.707031 339.113281 178.707031 C 330.378906 178.691406 323.507812 181.535156 318.714844 184.070312 C 316.433594 185.269531 314.570312 186.402344 313.269531 187.101562 C 313.238281 187.042969 313.203125 186.976562 313.171875 186.914062 C 312.953125 186.480469 312.761719 185.929688 312.628906 185.308594 L 314.4375 184.175781 C 315.398438 183.628906 316.539062 182.980469 317.792969 182.324219 C 324.902344 178.5625 331.855469 176.734375 339.039062 176.734375 C 341.324219 176.734375 343.59375 176.90625 345.859375 177.25 C 348.214844 177.601562 350.21875 178.835938 351.609375 180.558594 C 353.910156 181.574219 355.925781 182.65625 357.769531 183.695312 C 358.066406 183.863281 358.351562 184.027344 358.625 184.183594 L 360.433594 185.316406 C 360.300781 185.933594 360.109375 186.484375 359.886719 186.914062 C 359.855469 186.980469 359.824219 187.042969 359.792969 187.101562 C 359.003906 186.671875 357.972656 186.085938 356.800781 185.414062 C 355.738281 184.816406 354.53125 184.152344 353.195312 183.484375 C 353.621094 184.792969 353.769531 186.210938 353.550781 187.65625 C 352.898438 191.984375 349.1875 195.269531 344.84375 195.433594 C 347.199219 196.457031 349.335938 197.679688 351.445312 198.882812 C 352.660156 199.570312 353.871094 200.253906 355.28125 200.875 C 356.695312 201.472656 358.363281 202.113281 360.703125 202.136719 C 360.722656 202.136719 360.742188 202.136719 360.761719 202.136719 C 362.152344 202.136719 363.769531 201.816406 365.214844 201.082031 C 368.757812 199.292969 371.238281 196.371094 372.761719 193.269531 C 374.296875 190.140625 374.992188 186.753906 375 183.328125 C 374.988281 178.285156 373.472656 173.003906 369.824219 168.648438 C 366.441406 164.542969 360.945312 161.707031 354.65625 161.433594 C 354.394531 161.402344 354.132812 161.382812 353.867188 161.382812 L 319.199219 161.382812 Z M 319.199219 161.378906 "/><path style=" stroke:none;fill-rule:nonzero;fill:#000000;fill-opacity:1;" d="M 360.800781 222.675781 L 360.800781 204.105469 C 360.789062 204.105469 360.777344 204.105469 360.765625 204.105469 L 360.683594 204.105469 C 358.015625 204.074219 356.101562 203.359375 354.511719 202.6875 C 352.949219 201.996094 351.632812 201.25 350.472656 200.59375 L 350 200.324219 C 347.816406 199.078125 345.558594 197.789062 343.085938 196.816406 C 342.03125 196.398438 341.101562 195.800781 340.304688 195.078125 C 339.910156 195.058594 339.507812 195.03125 339.113281 195.03125 C 332.328125 195.0625 327.859375 197.597656 323.128906 200.28125 C 322.34375 200.726562 321.558594 201.171875 320.765625 201.605469 L 320.085938 201.945312 C 318.277344 202.859375 316.019531 203.996094 312.421875 204.101562 L 312.289062 204.101562 C 312.28125 204.101562 312.273438 204.101562 312.265625 204.101562 L 312.265625 222.675781 L 306.257812 296.332031 L 307.671875 313.703125 C 307.9375 316.945312 307.296875 320.046875 305.984375 322.789062 C 307.730469 325.90625 310.941406 328.121094 314.765625 328.433594 C 320.875 328.929688 326.226562 324.390625 326.726562 318.285156 L 333.390625 236.585938 L 339.675781 236.585938 L 346.339844 318.285156 C 346.835938 324.390625 352.191406 328.933594 358.296875 328.433594 C 364.402344 327.9375 368.949219 322.585938 368.453125 316.480469 Z M 360.800781 222.675781 "/><path style=" stroke:none;fill-rule:nonzero;fill:#000000;fill-opacity:1;" d="M 356.722656 136.085938 C 356.722656 136.746094 356.6875 137.40625 356.625 138.0625 C 356.558594 138.722656 356.460938 139.375 356.332031 140.023438 C 356.203125 140.671875 356.042969 141.3125 355.851562 141.945312 C 355.660156 142.574219 355.4375 143.199219 355.183594 143.808594 C 354.929688 144.417969 354.648438 145.015625 354.335938 145.597656 C 354.027344 146.179688 353.6875 146.746094 353.320312 147.296875 C 352.953125 147.847656 352.558594 148.378906 352.136719 148.886719 C 351.71875 149.398438 351.277344 149.886719 350.808594 150.355469 C 350.339844 150.824219 349.851562 151.265625 349.339844 151.683594 C 348.828125 152.105469 348.296875 152.5 347.75 152.867188 C 347.199219 153.234375 346.632812 153.570312 346.050781 153.882812 C 345.464844 154.195312 344.871094 154.476562 344.257812 154.730469 C 343.648438 154.984375 343.027344 155.207031 342.394531 155.398438 C 341.761719 155.589844 341.121094 155.75 340.472656 155.878906 C 339.824219 156.007812 339.167969 156.105469 338.511719 156.167969 C 337.855469 156.234375 337.195312 156.265625 336.53125 156.265625 C 335.871094 156.265625 335.210938 156.234375 334.554688 156.167969 C 333.894531 156.105469 333.242188 156.007812 332.59375 155.878906 C 331.945312 155.75 331.304688 155.589844 330.671875 155.398438 C 330.039062 155.207031 329.417969 154.984375 328.808594 154.730469 C 328.195312 154.476562 327.601562 154.195312 327.015625 153.882812 C 326.433594 153.570312 325.867188 153.234375 325.316406 152.867188 C 324.769531 152.5 324.238281 152.105469 323.726562 151.683594 C 323.214844 151.265625 322.726562 150.824219 322.257812 150.355469 C 321.789062 149.886719 321.347656 149.398438 320.925781 148.886719 C 320.507812 148.378906 320.113281 147.847656 319.746094 147.296875 C 319.378906 146.746094 319.039062 146.179688 318.730469 145.597656 C 318.417969 145.015625 318.136719 144.417969 317.882812 143.808594 C 317.628906 143.199219 317.40625 142.574219 317.214844 141.945312 C 317.023438 141.3125 316.863281 140.671875 316.734375 140.023438 C 316.605469 139.375 316.507812 138.722656 316.441406 138.0625 C 316.378906 137.40625 316.34375 136.746094 316.34375 136.085938 C 316.34375 135.425781 316.378906 134.765625 316.441406 134.105469 C 316.507812 133.449219 316.605469 132.796875 316.734375 132.148438 C 316.863281 131.5 317.023438 130.859375 317.214844 130.226562 C 317.40625 129.59375 317.628906 128.972656 317.882812 128.363281 C 318.136719 127.75 318.417969 127.15625 318.730469 126.570312 C 319.039062 125.988281 319.378906 125.421875 319.746094 124.875 C 320.113281 124.324219 320.507812 123.792969 320.925781 123.28125 C 321.347656 122.773438 321.789062 122.28125 322.257812 121.816406 C 322.726562 121.347656 323.214844 120.90625 323.726562 120.484375 C 324.238281 120.066406 324.765625 119.671875 325.316406 119.304688 C 325.867188 118.9375 326.433594 118.597656 327.015625 118.285156 C 327.601562 117.976562 328.195312 117.691406 328.808594 117.441406 C 329.417969 117.1875 330.039062 116.964844 330.671875 116.773438 C 331.304688 116.582031 331.945312 116.421875 332.59375 116.292969 C 333.242188 116.164062 333.894531 116.066406 334.554688 116 C 335.210938 115.9375 335.871094 115.902344 336.53125 115.902344 C 337.195312 115.902344 337.855469 115.9375 338.511719 116 C 339.167969 116.066406 339.824219 116.164062 340.472656 116.292969 C 341.121094 116.421875 341.761719 116.582031 342.394531 116.773438 C 343.027344 116.964844 343.648438 117.1875 344.257812 117.441406 C 344.871094 117.691406 345.464844 117.976562 346.050781 118.285156 C 346.632812 118.597656 347.199219 118.9375 347.75 119.304688 C 348.296875 119.671875 348.828125 120.066406 349.339844 120.484375 C 349.851562 120.90625 350.339844 121.347656 350.808594 121.816406 C 351.277344 122.28125 351.71875 122.773438 352.136719 123.28125 C 352.558594 123.792969 352.953125 124.324219 353.320312 124.875 C 353.6875 125.421875 354.027344 125.988281 354.335938 126.570312 C 354.648438 127.15625 354.929688 127.75 355.183594 128.363281 C 355.4375 128.972656 355.660156 129.59375 355.851562 130.226562 C 356.042969 130.859375 356.203125 131.5 356.332031 132.148438 C 356.460938 132.796875 356.558594 133.449219 356.625 134.105469 C 356.6875 134.765625 356.722656 135.425781 356.722656 136.085938 Z M 356.722656 136.085938 "/><path style=" stroke:none;fill-rule:nonzero;fill:#000000;fill-opacity:1;" d="M 302.5625 314.121094 L 293.8125 206.867188 L 293.8125 185.640625 C 293.796875 185.640625 293.785156 185.640625 293.769531 185.640625 L 293.679688 185.640625 C 290.625 185.605469 288.4375 184.785156 286.625 184.019531 C 284.832031 183.230469 283.332031 182.378906 282.003906 181.625 L 281.46875 181.316406 C 278.96875 179.894531 276.390625 178.417969 273.5625 177.308594 C 272.351562 176.832031 271.289062 176.144531 270.378906 175.320312 C 269.925781 175.296875 269.46875 175.265625 269.019531 175.265625 C 261.261719 175.304688 256.152344 178.203125 250.742188 181.269531 C 249.84375 181.78125 248.945312 182.289062 248.042969 182.78125 L 247.265625 183.171875 C 245.195312 184.214844 242.617188 185.515625 238.5 185.636719 L 238.351562 185.636719 C 238.339844 185.636719 238.332031 185.636719 238.324219 185.636719 L 238.324219 206.863281 L 232.738281 275.34375 L 235.621094 310.691406 C 235.996094 315.296875 234.800781 319.664062 232.503906 323.300781 C 234.605469 325.804688 237.667969 327.5 241.183594 327.789062 C 248.164062 328.355469 254.285156 323.164062 254.855469 316.183594 L 262.476562 222.777344 L 269.660156 222.777344 L 277.28125 316.183594 C 277.851562 323.164062 283.972656 328.355469 290.953125 327.789062 C 297.933594 327.21875 303.132812 321.101562 302.5625 314.121094 Z M 302.5625 314.121094 "/><path style=" stroke:none;fill-rule:nonzero;fill:#000000;fill-opacity:1;" d="M 289.148438 107.871094 C 289.148438 108.628906 289.109375 109.382812 289.035156 110.132812 C 288.960938 110.886719 288.851562 111.632812 288.703125 112.375 C 288.554688 113.117188 288.371094 113.847656 288.152344 114.570312 C 287.933594 115.292969 287.679688 116.003906 287.390625 116.703125 C 287.101562 117.402344 286.777344 118.082031 286.421875 118.75 C 286.066406 119.414062 285.675781 120.0625 285.257812 120.691406 C 284.835938 121.320312 284.386719 121.925781 283.910156 122.511719 C 283.429688 123.09375 282.921875 123.652344 282.386719 124.1875 C 281.851562 124.722656 281.292969 125.230469 280.710938 125.707031 C 280.125 126.1875 279.519531 126.636719 278.890625 127.058594 C 278.261719 127.476562 277.613281 127.863281 276.945312 128.222656 C 276.28125 128.578125 275.597656 128.898438 274.898438 129.1875 C 274.203125 129.476562 273.492188 129.734375 272.765625 129.953125 C 272.042969 130.171875 271.3125 130.355469 270.570312 130.503906 C 269.828125 130.648438 269.082031 130.761719 268.328125 130.835938 C 267.578125 130.910156 266.824219 130.945312 266.066406 130.945312 C 265.3125 130.945312 264.558594 130.910156 263.804688 130.835938 C 263.054688 130.761719 262.304688 130.648438 261.566406 130.503906 C 260.824219 130.355469 260.089844 130.171875 259.367188 129.953125 C 258.644531 129.734375 257.933594 129.476562 257.234375 129.1875 C 256.535156 128.898438 255.855469 128.578125 255.1875 128.222656 C 254.519531 127.863281 253.875 127.476562 253.246094 127.058594 C 252.617188 126.636719 252.007812 126.1875 251.425781 125.707031 C 250.839844 125.230469 250.28125 124.722656 249.746094 124.1875 C 249.210938 123.652344 248.707031 123.09375 248.226562 122.511719 C 247.746094 121.925781 247.296875 121.320312 246.875 120.691406 C 246.457031 120.0625 246.070312 119.414062 245.710938 118.75 C 245.355469 118.082031 245.035156 117.402344 244.742188 116.703125 C 244.453125 116.003906 244.199219 115.292969 243.980469 114.570312 C 243.761719 113.847656 243.578125 113.113281 243.429688 112.375 C 243.28125 111.632812 243.171875 110.886719 243.097656 110.132812 C 243.023438 109.382812 242.988281 108.628906 242.988281 107.871094 C 242.988281 107.117188 243.023438 106.363281 243.097656 105.613281 C 243.171875 104.859375 243.28125 104.113281 243.429688 103.371094 C 243.578125 102.628906 243.761719 101.898438 243.980469 101.175781 C 244.199219 100.453125 244.453125 99.742188 244.742188 99.042969 C 245.035156 98.34375 245.355469 97.664062 245.710938 96.996094 C 246.070312 96.332031 246.457031 95.683594 246.875 95.054688 C 247.296875 94.425781 247.746094 93.820312 248.226562 93.234375 C 248.707031 92.652344 249.210938 92.09375 249.746094 91.558594 C 250.28125 91.023438 250.839844 90.515625 251.425781 90.039062 C 252.007812 89.558594 252.617188 89.109375 253.246094 88.6875 C 253.875 88.269531 254.519531 87.882812 255.1875 87.523438 C 255.855469 87.167969 256.535156 86.847656 257.234375 86.558594 C 257.933594 86.265625 258.644531 86.011719 259.367188 85.792969 C 260.089844 85.574219 260.824219 85.390625 261.566406 85.242188 C 262.304688 85.097656 263.054688 84.984375 263.804688 84.910156 C 264.558594 84.835938 265.3125 84.800781 266.066406 84.800781 C 266.824219 84.800781 267.578125 84.835938 268.328125 84.910156 C 269.082031 84.984375 269.828125 85.097656 270.570312 85.242188 C 271.3125 85.390625 272.042969 85.574219 272.765625 85.792969 C 273.492188 86.011719 274.203125 86.265625 274.898438 86.558594 C 275.597656 86.847656 276.28125 87.167969 276.945312 87.523438 C 277.613281 87.882812 278.261719 88.269531 278.890625 88.6875 C 279.519531 89.109375 280.125 89.558594 280.710938 90.039062 C 281.292969 90.515625 281.851562 91.023438 282.386719 91.558594 C 282.921875 92.09375 283.429688 92.652344 283.910156 93.234375 C 284.386719 93.820312 284.835938 94.425781 285.257812 95.054688 C 285.675781 95.683594 286.066406 96.332031 286.421875 96.996094 C 286.777344 97.664062 287.101562 98.34375 287.390625 99.042969 C 287.679688 99.742188 287.933594 100.453125 288.152344 101.175781 C 288.371094 101.898438 288.554688 102.628906 288.703125 103.371094 C 288.851562 104.113281 288.960938 104.859375 289.035156 105.613281 C 289.109375 106.363281 289.148438 107.117188 289.148438 107.871094 Z M 289.148438 107.871094 "/><path style=" stroke:none;fill-rule:nonzero;fill:#000000;fill-opacity:1;" d="M 240.730469 150.867188 C 237.890625 156.644531 233.523438 161.140625 228.101562 163.882812 C 227.28125 164.296875 226.410156 164.644531 225.515625 164.9375 L 225.515625 174.832031 C 227.28125 177.773438 229.839844 180.445312 233.273438 182.175781 C 234.925781 183.019531 236.769531 183.382812 238.347656 183.382812 C 238.375 183.382812 238.40625 183.382812 238.433594 183.382812 C 242.480469 183.261719 244.761719 181.878906 246.960938 180.800781 C 253.3125 177.34375 259.292969 173.054688 269.015625 173.011719 C 270.558594 173.011719 272.191406 173.125 273.953125 173.386719 C 278.433594 174.0625 282.617188 170.976562 283.285156 166.496094 C 283.960938 162.011719 280.875 157.835938 276.390625 157.164062 C 273.828125 156.777344 271.371094 156.601562 269.015625 156.601562 C 259.027344 156.582031 251.175781 159.832031 245.691406 162.730469 C 243.089844 164.105469 240.953125 165.398438 239.472656 166.199219 C 239.433594 166.128906 239.394531 166.054688 239.355469 165.980469 C 239.105469 165.488281 238.886719 164.855469 238.738281 164.148438 L 240.804688 162.855469 C 241.902344 162.226562 243.210938 161.484375 244.640625 160.734375 C 252.769531 156.433594 260.71875 154.34375 268.933594 154.34375 C 271.546875 154.34375 274.140625 154.539062 276.730469 154.929688 C 279.421875 155.335938 281.714844 156.746094 283.304688 158.714844 C 285.933594 159.875 288.238281 161.109375 290.34375 162.300781 C 290.683594 162.492188 291.007812 162.679688 291.324219 162.859375 L 293.390625 164.152344 C 293.238281 164.859375 293.019531 165.488281 292.769531 165.980469 C 292.734375 166.054688 292.695312 166.125 292.65625 166.195312 C 291.757812 165.707031 290.578125 165.03125 289.238281 164.265625 C 288.023438 163.582031 286.644531 162.824219 285.117188 162.058594 C 285.601562 163.554688 285.769531 165.175781 285.519531 166.828125 C 284.773438 171.777344 280.53125 175.53125 275.566406 175.71875 C 278.257812 176.886719 280.703125 178.285156 283.113281 179.664062 C 284.503906 180.449219 285.882812 181.230469 287.5 181.941406 C 289.113281 182.625 291.019531 183.351562 293.699219 183.386719 C 293.722656 183.386719 293.742188 183.386719 293.765625 183.386719 C 295.355469 183.386719 297.207031 183.019531 298.859375 182.179688 C 302.90625 180.132812 305.742188 176.792969 307.484375 173.246094 C 309.242188 169.667969 310.035156 165.796875 310.046875 161.878906 C 310.03125 156.117188 308.296875 150.074219 304.125 145.097656 C 300.257812 140.402344 293.972656 137.15625 286.785156 136.847656 C 286.488281 136.8125 286.183594 136.789062 285.878906 136.789062 L 246.246094 136.789062 C 245.9375 136.789062 245.640625 136.8125 245.339844 136.847656 C 244.972656 136.863281 244.605469 136.894531 244.242188 136.921875 C 244.003906 141.914062 242.828125 146.589844 240.730469 150.867188 Z M 240.730469 150.867188 "/><path style=" stroke:none;fill-rule:nonzero;fill:#000000;fill-opacity:1;" d="M 67.328125 313.703125 L 68.746094 296.320312 L 62.738281 222.671875 L 62.738281 204.101562 C 62.730469 204.101562 62.722656 204.101562 62.714844 204.101562 L 62.582031 204.101562 C 58.984375 203.996094 56.730469 202.859375 54.917969 201.945312 L 54.238281 201.605469 C 53.449219 201.171875 52.660156 200.726562 51.875 200.28125 C 47.144531 197.597656 42.671875 195.0625 35.890625 195.03125 C 35.496094 195.03125 35.097656 195.058594 34.699219 195.078125 C 33.902344 195.796875 32.972656 196.398438 31.917969 196.816406 C 29.441406 197.785156 27.1875 199.078125 25 200.324219 L 24.53125 200.59375 C 23.371094 201.25 22.054688 201.996094 20.492188 202.6875 C 18.902344 203.359375 16.988281 204.074219 14.320312 204.105469 L 14.238281 204.105469 C 14.226562 204.105469 14.214844 204.105469 14.203125 204.105469 L 14.203125 222.671875 L 6.546875 316.480469 C 6.050781 322.585938 10.601562 327.9375 16.707031 328.433594 C 22.8125 328.933594 28.167969 324.390625 28.664062 318.285156 L 35.332031 236.585938 L 41.613281 236.585938 L 48.277344 318.285156 C 48.773438 324.390625 54.132812 328.933594 60.234375 328.433594 C 64.0625 328.125 67.273438 325.90625 69.015625 322.792969 C 67.707031 320.050781 67.0625 316.945312 67.328125 313.703125 Z M 67.328125 313.703125 "/><path style=" stroke:none;fill-rule:nonzero;fill:#000000;fill-opacity:1;" d="M 58.660156 136.085938 C 58.660156 136.746094 58.625 137.40625 58.5625 138.0625 C 58.496094 138.722656 58.398438 139.375 58.269531 140.023438 C 58.140625 140.671875 57.980469 141.3125 57.789062 141.945312 C 57.597656 142.574219 57.375 143.199219 57.121094 143.808594 C 56.867188 144.417969 56.585938 145.015625 56.273438 145.597656 C 55.960938 146.179688 55.625 146.746094 55.257812 147.296875 C 54.886719 147.847656 54.496094 148.378906 54.074219 148.886719 C 53.65625 149.398438 53.214844 149.886719 52.746094 150.355469 C 52.277344 150.824219 51.789062 151.265625 51.277344 151.683594 C 50.765625 152.105469 50.234375 152.5 49.6875 152.867188 C 49.136719 153.234375 48.570312 153.570312 47.988281 153.882812 C 47.402344 154.195312 46.808594 154.476562 46.195312 154.730469 C 45.585938 154.984375 44.964844 155.207031 44.332031 155.398438 C 43.699219 155.589844 43.058594 155.75 42.410156 155.878906 C 41.761719 156.007812 41.105469 156.105469 40.449219 156.167969 C 39.792969 156.234375 39.132812 156.265625 38.46875 156.265625 C 37.808594 156.265625 37.148438 156.234375 36.492188 156.167969 C 35.832031 156.105469 35.179688 156.007812 34.53125 155.878906 C 33.882812 155.75 33.242188 155.589844 32.609375 155.398438 C 31.976562 155.207031 31.355469 154.984375 30.746094 154.730469 C 30.132812 154.476562 29.535156 154.195312 28.953125 153.882812 C 28.371094 153.570312 27.804688 153.234375 27.253906 152.867188 C 26.703125 152.5 26.175781 152.105469 25.664062 151.683594 C 25.152344 151.265625 24.664062 150.824219 24.195312 150.355469 C 23.726562 149.886719 23.285156 149.398438 22.863281 148.886719 C 22.445312 148.378906 22.050781 147.847656 21.683594 147.296875 C 21.316406 146.746094 20.976562 146.179688 20.667969 145.597656 C 20.355469 145.015625 20.074219 144.417969 19.820312 143.808594 C 19.566406 143.199219 19.34375 142.574219 19.152344 141.945312 C 18.960938 141.3125 18.800781 140.671875 18.671875 140.023438 C 18.542969 139.375 18.445312 138.722656 18.378906 138.0625 C 18.316406 137.40625 18.28125 136.746094 18.28125 136.085938 C 18.28125 135.425781 18.316406 134.765625 18.378906 134.105469 C 18.445312 133.449219 18.542969 132.796875 18.671875 132.148438 C 18.800781 131.5 18.960938 130.859375 19.152344 130.226562 C 19.34375 129.59375 19.566406 128.972656 19.820312 128.363281 C 20.074219 127.75 20.355469 127.15625 20.667969 126.570312 C 20.976562 125.988281 21.316406 125.421875 21.683594 124.875 C 22.050781 124.324219 22.445312 123.792969 22.863281 123.28125 C 23.285156 122.773438 23.726562 122.28125 24.195312 121.816406 C 24.664062 121.347656 25.152344 120.90625 25.664062 120.484375 C 26.175781 120.066406 26.703125 119.671875 27.253906 119.304688 C 27.804688 118.9375 28.371094 118.597656 28.953125 118.285156 C 29.535156 117.976562 30.132812 117.691406 30.746094 117.441406 C 31.355469 117.1875 31.976562 116.964844 32.609375 116.773438 C 33.242188 116.582031 33.882812 116.421875 34.53125 116.292969 C 35.179688 116.164062 35.832031 116.066406 36.492188 116 C 37.148438 115.9375 37.808594 115.902344 38.46875 115.902344 C 39.132812 115.902344 39.792969 115.9375 40.449219 116 C 41.105469 116.066406 41.761719 116.164062 42.410156 116.292969 C 43.058594 116.421875 43.699219 116.582031 44.332031 116.773438 C 44.964844 116.964844 45.585938 117.1875 46.195312 117.441406 C 46.808594 117.691406 47.402344 117.976562 47.988281 118.285156 C 48.570312 118.597656 49.136719 118.9375 49.6875 119.304688 C 50.234375 119.671875 50.765625 120.066406 51.277344 120.484375 C 51.789062 120.90625 52.277344 121.347656 52.746094 121.816406 C 53.214844 122.28125 53.65625 122.773438 54.074219 123.28125 C 54.496094 123.792969 54.886719 124.324219 55.257812 124.875 C 55.625 125.421875 55.960938 125.988281 56.273438 126.570312 C 56.585938 127.15625 56.867188 127.75 57.121094 128.363281 C 57.375 128.972656 57.597656 129.59375 57.789062 130.226562 C 57.980469 130.859375 58.140625 131.5 58.269531 132.148438 C 58.398438 132.796875 58.496094 133.449219 58.5625 134.105469 C 58.625 134.765625 58.660156 135.425781 58.660156 136.085938 Z M 58.660156 136.085938 "/><path style=" stroke:none;fill-rule:nonzero;fill:#000000;fill-opacity:1;" d="M 0 183.324219 C 0.0078125 186.746094 0.703125 190.136719 2.238281 193.265625 C 3.765625 196.367188 6.246094 199.289062 9.785156 201.074219 C 11.234375 201.808594 12.851562 202.132812 14.238281 202.132812 C 14.257812 202.132812 14.277344 202.132812 14.300781 202.132812 C 16.640625 202.105469 18.308594 201.46875 19.71875 200.871094 C 21.132812 200.246094 22.34375 199.5625 23.558594 198.875 C 25.664062 197.671875 27.804688 196.449219 30.15625 195.425781 C 25.816406 195.261719 22.105469 191.980469 21.453125 187.652344 C 21.234375 186.203125 21.382812 184.785156 21.808594 183.480469 C 20.472656 184.148438 19.265625 184.8125 18.199219 185.410156 C 17.03125 186.082031 16 186.667969 15.210938 187.097656 C 15.179688 187.035156 15.144531 186.976562 15.113281 186.910156 C 14.894531 186.476562 14.703125 185.929688 14.566406 185.308594 L 16.378906 184.175781 C 16.652344 184.019531 16.9375 183.855469 17.234375 183.6875 C 19.078125 182.648438 21.09375 181.570312 23.394531 180.554688 C 24.785156 178.832031 26.789062 177.597656 29.144531 177.242188 C 31.40625 176.902344 33.679688 176.730469 35.964844 176.730469 C 43.148438 176.730469 50.101562 178.558594 57.207031 182.320312 C 58.460938 182.976562 59.605469 183.625 60.5625 184.171875 L 62.375 185.304688 C 62.242188 185.925781 62.050781 186.476562 61.832031 186.90625 C 61.796875 186.972656 61.765625 187.035156 61.730469 187.097656 C 60.433594 186.394531 58.566406 185.265625 56.289062 184.066406 C 51.496094 181.53125 44.625 178.6875 35.890625 178.703125 C 33.832031 178.703125 31.679688 178.855469 29.4375 179.195312 C 25.515625 179.785156 22.816406 183.433594 23.40625 187.355469 C 23.996094 191.273438 27.652344 193.972656 31.570312 193.382812 C 33.113281 193.152344 34.542969 193.054688 35.890625 193.054688 C 44.394531 193.09375 49.625 196.84375 55.183594 199.867188 C 57.105469 200.8125 59.097656 202.019531 62.640625 202.125 C 62.667969 202.125 62.691406 202.125 62.714844 202.125 C 64.09375 202.125 65.710938 201.804688 67.15625 201.070312 C 70.691406 199.289062 73.179688 196.367188 74.703125 193.257812 C 75.269531 192.105469 75.71875 190.914062 76.0625 189.699219 L 76.0625 187.652344 C 75.292969 187.398438 74.539062 187.109375 73.832031 186.753906 C 69.140625 184.386719 65.363281 180.496094 62.90625 175.5 C 60.875 171.351562 59.835938 166.773438 59.824219 161.863281 C 59.824219 161.84375 59.824219 161.824219 59.824219 161.804688 C 58.777344 161.605469 57.699219 161.472656 56.59375 161.421875 C 56.332031 161.394531 56.070312 161.375 55.800781 161.375 L 21.136719 161.375 C 20.871094 161.375 20.605469 161.394531 20.347656 161.421875 C 14.058594 161.695312 8.5625 164.535156 5.179688 168.640625 C 1.527344 172.996094 0.015625 178.28125 0 183.324219 Z M 0 183.324219 "/><path style=" stroke:none;fill-rule:nonzero;fill:#000000;fill-opacity:1;" d="M 139.382812 310.691406 L 142.269531 275.34375 L 136.679688 206.863281 L 136.679688 185.636719 C 136.671875 185.636719 136.664062 185.636719 136.65625 185.636719 L 136.503906 185.636719 C 132.386719 185.515625 129.8125 184.214844 127.742188 183.171875 L 126.964844 182.78125 C 126.058594 182.289062 125.160156 181.78125 124.261719 181.269531 C 118.851562 178.203125 113.742188 175.304688 105.988281 175.265625 C 105.535156 175.265625 105.078125 175.296875 104.625 175.320312 C 103.714844 176.144531 102.652344 176.832031 101.445312 177.308594 C 98.617188 178.417969 96.035156 179.894531 93.539062 181.316406 L 93 181.625 C 91.675781 182.378906 90.167969 183.230469 88.378906 184.019531 C 86.566406 184.789062 84.375 185.605469 81.324219 185.640625 L 81.234375 185.640625 C 81.21875 185.640625 81.207031 185.640625 81.195312 185.640625 L 81.195312 206.863281 L 72.441406 314.121094 C 71.875 321.101562 77.074219 327.21875 84.054688 327.785156 C 91.035156 328.355469 97.160156 323.160156 97.726562 316.179688 L 105.34375 222.777344 L 112.53125 222.777344 L 120.152344 316.179688 C 120.71875 323.160156 126.84375 328.355469 133.820312 327.785156 C 137.335938 327.5 140.398438 325.804688 142.5 323.300781 C 140.207031 319.664062 139.007812 315.296875 139.382812 310.691406 Z M 139.382812 310.691406 "/><path style=" stroke:none;fill-rule:nonzero;fill:#000000;fill-opacity:1;" d="M 132.015625 107.871094 C 132.015625 108.628906 131.980469 109.382812 131.90625 110.132812 C 131.832031 110.886719 131.71875 111.632812 131.574219 112.375 C 131.425781 113.117188 131.242188 113.847656 131.023438 114.570312 C 130.804688 115.292969 130.546875 116.003906 130.257812 116.703125 C 129.96875 117.402344 129.648438 118.082031 129.292969 118.75 C 128.933594 119.414062 128.546875 120.0625 128.125 120.691406 C 127.707031 121.320312 127.257812 121.925781 126.777344 122.511719 C 126.296875 123.09375 125.789062 123.652344 125.257812 124.1875 C 124.722656 124.722656 124.164062 125.230469 123.578125 125.707031 C 122.992188 126.1875 122.386719 126.636719 121.757812 127.058594 C 121.128906 127.476562 120.484375 127.863281 119.816406 128.222656 C 119.148438 128.578125 118.46875 128.898438 117.769531 129.1875 C 117.070312 129.476562 116.359375 129.734375 115.636719 129.953125 C 114.914062 130.171875 114.179688 130.355469 113.4375 130.503906 C 112.699219 130.648438 111.949219 130.761719 111.199219 130.835938 C 110.445312 130.910156 109.691406 130.945312 108.9375 130.945312 C 108.179688 130.945312 107.425781 130.910156 106.675781 130.835938 C 105.921875 130.761719 105.175781 130.648438 104.433594 130.503906 C 103.691406 130.355469 102.960938 130.171875 102.238281 129.953125 C 101.511719 129.734375 100.800781 129.476562 100.105469 129.1875 C 99.40625 128.898438 98.722656 128.578125 98.054688 128.222656 C 97.390625 127.863281 96.742188 127.476562 96.113281 127.058594 C 95.484375 126.636719 94.878906 126.1875 94.292969 125.707031 C 93.710938 125.230469 93.152344 124.722656 92.617188 124.1875 C 92.082031 123.652344 91.574219 123.09375 91.09375 122.511719 C 90.617188 121.925781 90.164062 121.320312 89.746094 120.691406 C 89.324219 120.0625 88.9375 119.414062 88.582031 118.75 C 88.226562 118.082031 87.902344 117.402344 87.613281 116.703125 C 87.324219 116.003906 87.070312 115.292969 86.851562 114.570312 C 86.628906 113.847656 86.445312 113.113281 86.300781 112.375 C 86.152344 111.632812 86.042969 110.886719 85.96875 110.132812 C 85.894531 109.382812 85.855469 108.628906 85.855469 107.871094 C 85.855469 107.117188 85.894531 106.363281 85.96875 105.613281 C 86.042969 104.859375 86.152344 104.113281 86.300781 103.371094 C 86.445312 102.628906 86.628906 101.898438 86.851562 101.175781 C 87.070312 100.453125 87.324219 99.742188 87.613281 99.042969 C 87.902344 98.34375 88.226562 97.664062 88.582031 96.996094 C 88.9375 96.332031 89.324219 95.683594 89.746094 95.054688 C 90.164062 94.425781 90.617188 93.820312 91.09375 93.234375 C 91.574219 92.652344 92.082031 92.09375 92.617188 91.558594 C 93.152344 91.023438 93.710938 90.515625 94.292969 90.039062 C 94.878906 89.558594 95.484375 89.109375 96.113281 88.6875 C 96.742188 88.269531 97.390625 87.882812 98.054688 87.523438 C 98.722656 87.167969 99.40625 86.847656 100.105469 86.558594 C 100.800781 86.265625 101.511719 86.011719 102.238281 85.792969 C 102.960938 85.574219 103.691406 85.390625 104.433594 85.242188 C 105.175781 85.097656 105.921875 84.984375 106.675781 84.910156 C 107.425781 84.835938 108.179688 84.800781 108.9375 84.800781 C 109.691406 84.800781 110.445312 84.835938 111.199219 84.910156 C 111.949219 84.984375 112.699219 85.097656 113.4375 85.242188 C 114.179688 85.390625 114.914062 85.574219 115.636719 85.792969 C 116.359375 86.011719 117.070312 86.265625 117.769531 86.558594 C 118.46875 86.847656 119.148438 87.167969 119.816406 87.523438 C 120.484375 87.882812 121.128906 88.269531 121.757812 88.6875 C 122.386719 89.109375 122.992188 89.558594 123.578125 90.039062 C 124.164062 90.515625 124.722656 91.023438 125.257812 91.558594 C 125.789062 92.09375 126.296875 92.652344 126.777344 93.234375 C 127.257812 93.820312 127.707031 94.425781 128.125 95.054688 C 128.546875 95.683594 128.933594 96.332031 129.292969 96.996094 C 129.648438 97.664062 129.96875 98.34375 130.257812 99.042969 C 130.546875 99.742188 130.804688 100.453125 131.023438 101.175781 C 131.242188 101.898438 131.425781 102.628906 131.574219 103.371094 C 131.71875 104.113281 131.832031 104.859375 131.90625 105.613281 C 131.980469 106.363281 132.015625 107.117188 132.015625 107.871094 Z M 132.015625 107.871094 "/><path style=" stroke:none;fill-rule:nonzero;fill:#000000;fill-opacity:1;" d="M 64.953125 161.878906 C 64.960938 165.796875 65.757812 169.667969 67.511719 173.246094 C 69.257812 176.792969 72.09375 180.132812 76.140625 182.179688 C 77.796875 183.019531 79.648438 183.386719 81.230469 183.386719 C 81.253906 183.386719 81.277344 183.386719 81.300781 183.386719 C 83.976562 183.351562 85.882812 182.625 87.503906 181.941406 C 89.113281 181.230469 90.5 180.449219 91.886719 179.664062 C 94.296875 178.285156 96.742188 176.886719 99.433594 175.71875 C 94.46875 175.53125 90.226562 171.777344 89.480469 166.828125 C 89.230469 165.175781 89.398438 163.554688 89.886719 162.058594 C 88.359375 162.824219 86.980469 163.582031 85.761719 164.265625 C 84.421875 165.03125 83.246094 165.707031 82.34375 166.195312 C 82.304688 166.125 82.269531 166.054688 82.230469 165.980469 C 81.980469 165.488281 81.761719 164.859375 81.605469 164.152344 L 83.679688 162.859375 C 83.992188 162.679688 84.316406 162.492188 84.65625 162.300781 C 86.765625 161.109375 89.070312 159.875 91.699219 158.714844 C 93.285156 156.746094 95.578125 155.335938 98.273438 154.929688 C 100.859375 154.539062 103.457031 154.34375 106.066406 154.34375 C 114.28125 154.34375 122.230469 156.433594 130.359375 160.734375 C 131.789062 161.484375 133.097656 162.226562 134.191406 162.855469 L 136.265625 164.152344 C 136.109375 164.855469 135.894531 165.488281 135.644531 165.980469 C 135.605469 166.054688 135.566406 166.128906 135.53125 166.199219 C 134.046875 165.398438 131.914062 164.105469 129.308594 162.730469 C 123.828125 159.832031 115.972656 156.585938 105.984375 156.601562 C 103.632812 156.601562 101.171875 156.777344 98.609375 157.164062 C 94.125 157.835938 91.039062 162.011719 91.710938 166.496094 C 92.386719 170.976562 96.5625 174.0625 101.042969 173.386719 C 102.808594 173.125 104.445312 173.011719 105.980469 173.011719 C 115.707031 173.054688 121.6875 177.34375 128.039062 180.800781 C 130.238281 181.878906 132.515625 183.261719 136.566406 183.382812 C 136.597656 183.382812 136.625 183.382812 136.652344 183.382812 C 138.230469 183.382812 140.078125 183.019531 141.730469 182.175781 C 145.160156 180.445312 147.71875 177.773438 149.484375 174.832031 L 149.484375 164.9375 C 148.582031 164.640625 147.703125 164.289062 146.878906 163.867188 C 141.472656 161.144531 137.105469 156.644531 134.269531 150.867188 C 132.167969 146.585938 130.992188 141.902344 130.753906 136.921875 C 130.390625 136.894531 130.023438 136.863281 129.65625 136.847656 C 129.359375 136.8125 129.054688 136.789062 128.75 136.789062 L 89.117188 136.789062 C 88.8125 136.789062 88.511719 136.8125 88.214844 136.847656 C 81.027344 137.160156 74.742188 140.402344 70.875 145.097656 C 66.703125 150.074219 64.972656 156.117188 64.953125 161.878906 Z M 64.953125 161.878906 "/><path style=" stroke:none;fill-rule:nonzero;fill:#000000;fill-opacity:1;" d="M 229.707031 311.171875 L 219.589844 187.148438 L 219.589844 162.585938 C 219.570312 162.585938 219.554688 162.589844 219.539062 162.589844 L 219.433594 162.589844 C 215.902344 162.546875 213.375 161.601562 211.273438 160.714844 C 209.207031 159.800781 207.464844 158.8125 205.929688 157.941406 L 205.308594 157.589844 C 202.421875 155.941406 199.4375 154.234375 196.167969 152.953125 C 194.769531 152.398438 193.539062 151.605469 192.488281 150.652344 C 191.964844 150.628906 191.433594 150.589844 190.910156 150.589844 C 181.941406 150.632812 176.035156 153.984375 169.78125 157.53125 C 168.738281 158.125 167.699219 158.710938 166.652344 159.28125 L 165.753906 159.734375 C 163.359375 160.941406 160.378906 162.441406 155.617188 162.582031 L 155.445312 162.582031 C 155.433594 162.582031 155.425781 162.582031 155.417969 162.582031 L 155.417969 187.117188 L 145.296875 311.171875 C 144.636719 319.242188 150.652344 326.320312 158.722656 326.976562 C 166.796875 327.632812 173.875 321.625 174.535156 313.554688 L 183.347656 205.535156 L 191.65625 205.535156 L 200.46875 313.554688 C 201.125 321.628906 208.207031 327.632812 216.277344 326.976562 C 224.351562 326.320312 230.363281 319.246094 229.707031 311.171875 Z M 229.707031 311.171875 "/><g clip-rule="nonzero" clip-path="url(#9648bbee84)"><path style=" stroke:none;fill-rule:nonzero;fill:#000000;fill-opacity:1;" d="M 214.195312 72.652344 C 214.195312 73.527344 214.152344 74.398438 214.066406 75.269531 C 213.980469 76.140625 213.851562 77.003906 213.679688 77.859375 C 213.511719 78.71875 213.296875 79.5625 213.042969 80.398438 C 212.789062 81.234375 212.496094 82.058594 212.160156 82.867188 C 211.828125 83.671875 211.453125 84.460938 211.042969 85.234375 C 210.628906 86.003906 210.179688 86.753906 209.695312 87.480469 C 209.210938 88.207031 208.6875 88.90625 208.132812 89.582031 C 207.582031 90.257812 206.992188 90.902344 206.375 91.523438 C 205.757812 92.140625 205.109375 92.726562 204.433594 93.28125 C 203.757812 93.835938 203.058594 94.355469 202.332031 94.839844 C 201.605469 95.328125 200.855469 95.773438 200.082031 96.1875 C 199.3125 96.597656 198.523438 96.972656 197.714844 97.304688 C 196.910156 97.640625 196.085938 97.933594 195.25 98.1875 C 194.414062 98.441406 193.566406 98.65625 192.707031 98.824219 C 191.851562 98.996094 190.988281 99.125 190.117188 99.210938 C 189.246094 99.292969 188.375 99.335938 187.5 99.335938 C 186.628906 99.335938 185.753906 99.292969 184.886719 99.210938 C 184.015625 99.125 183.152344 98.996094 182.292969 98.824219 C 181.4375 98.65625 180.589844 98.441406 179.753906 98.1875 C 178.917969 97.933594 178.09375 97.640625 177.285156 97.304688 C 176.480469 96.972656 175.6875 96.597656 174.917969 96.1875 C 174.148438 95.773438 173.398438 95.328125 172.671875 94.839844 C 171.945312 94.355469 171.242188 93.835938 170.566406 93.28125 C 169.890625 92.726562 169.246094 92.140625 168.625 91.523438 C 168.007812 90.902344 167.421875 90.257812 166.867188 89.582031 C 166.3125 88.90625 165.792969 88.207031 165.308594 87.480469 C 164.820312 86.753906 164.371094 86.003906 163.960938 85.234375 C 163.546875 84.460938 163.175781 83.671875 162.839844 82.867188 C 162.507812 82.058594 162.210938 81.234375 161.957031 80.398438 C 161.703125 79.5625 161.492188 78.71875 161.320312 77.859375 C 161.152344 77.003906 161.023438 76.140625 160.9375 75.269531 C 160.851562 74.398438 160.808594 73.527344 160.808594 72.652344 C 160.808594 71.78125 160.851562 70.910156 160.9375 70.039062 C 161.023438 69.167969 161.152344 68.304688 161.320312 67.449219 C 161.492188 66.589844 161.703125 65.746094 161.957031 64.90625 C 162.210938 64.070312 162.507812 63.25 162.839844 62.441406 C 163.175781 61.636719 163.546875 60.847656 163.960938 60.074219 C 164.371094 59.304688 164.820312 58.554688 165.308594 57.828125 C 165.792969 57.101562 166.3125 56.402344 166.867188 55.726562 C 167.421875 55.050781 168.007812 54.402344 168.625 53.785156 C 169.246094 53.167969 169.890625 52.582031 170.566406 52.027344 C 171.242188 51.472656 171.945312 50.953125 172.671875 50.46875 C 173.398438 49.980469 174.148438 49.53125 174.917969 49.121094 C 175.6875 48.710938 176.480469 48.335938 177.285156 48 C 178.09375 47.667969 178.917969 47.371094 179.753906 47.121094 C 180.589844 46.867188 181.4375 46.652344 182.292969 46.484375 C 183.152344 46.3125 184.015625 46.183594 184.886719 46.097656 C 185.753906 46.011719 186.628906 45.96875 187.5 45.96875 C 188.375 45.96875 189.246094 46.011719 190.117188 46.097656 C 190.988281 46.183594 191.851562 46.3125 192.707031 46.484375 C 193.566406 46.652344 194.414062 46.867188 195.25 47.121094 C 196.085938 47.371094 196.910156 47.667969 197.714844 48 C 198.523438 48.335938 199.3125 48.710938 200.082031 49.121094 C 200.855469 49.53125 201.605469 49.980469 202.332031 50.46875 C 203.058594 50.953125 203.757812 51.472656 204.433594 52.027344 C 205.109375 52.582031 205.757812 53.167969 206.375 53.785156 C 206.992188 54.402344 207.582031 55.050781 208.132812 55.726562 C 208.6875 56.402344 209.210938 57.101562 209.695312 57.828125 C 210.179688 58.554688 210.628906 59.304688 211.042969 60.074219 C 211.453125 60.847656 211.828125 61.636719 212.160156 62.441406 C 212.496094 63.25 212.789062 64.070312 213.042969 64.90625 C 213.296875 65.746094 213.511719 66.589844 213.679688 67.449219 C 213.851562 68.304688 213.980469 69.167969 214.066406 70.039062 C 214.152344 70.910156 214.195312 71.78125 214.195312 72.652344 Z M 214.195312 72.652344 "/></g><path style=" stroke:none;fill-rule:nonzero;fill:#000000;fill-opacity:1;" d="M 136.636719 135.109375 C 136.648438 139.636719 137.566406 144.117188 139.597656 148.253906 C 141.613281 152.359375 144.898438 156.226562 149.574219 158.582031 C 151.484375 159.554688 153.621094 159.980469 155.445312 159.980469 C 155.476562 159.980469 155.507812 159.980469 155.542969 159.976562 C 160.226562 159.839844 162.863281 158.242188 165.40625 156.992188 C 172.753906 152.992188 179.667969 148.035156 190.914062 147.984375 C 192.695312 147.984375 194.585938 148.113281 196.625 148.417969 C 201.808594 149.199219 206.640625 145.628906 207.417969 140.445312 C 208.199219 135.261719 204.628906 130.433594 199.445312 129.65625 C 196.480469 129.210938 193.636719 129.007812 190.914062 129.007812 C 179.367188 128.984375 170.277344 132.742188 163.941406 136.097656 C 160.929688 137.683594 158.464844 139.179688 156.746094 140.101562 C 156.703125 140.023438 156.660156 139.941406 156.613281 139.855469 C 156.328125 139.28125 156.078125 138.554688 155.898438 137.738281 L 158.292969 136.238281 C 159.5625 135.511719 161.074219 134.65625 162.726562 133.785156 C 172.128906 128.8125 181.320312 126.398438 190.820312 126.398438 C 193.839844 126.398438 196.84375 126.625 199.839844 127.074219 C 202.953125 127.542969 205.601562 129.175781 207.441406 131.453125 C 210.480469 132.796875 213.148438 134.222656 215.585938 135.59375 C 215.976562 135.820312 216.351562 136.035156 216.714844 136.242188 L 219.109375 137.738281 C 218.929688 138.554688 218.679688 139.28125 218.386719 139.855469 C 218.34375 139.941406 218.304688 140.023438 218.257812 140.101562 C 217.214844 139.53125 215.855469 138.757812 214.304688 137.867188 C 212.898438 137.078125 211.304688 136.203125 209.539062 135.316406 C 210.101562 137.042969 210.292969 138.917969 210.003906 140.832031 C 209.140625 146.554688 204.238281 150.894531 198.496094 151.113281 C 201.605469 152.464844 204.433594 154.082031 207.21875 155.671875 C 208.828125 156.582031 210.425781 157.488281 212.292969 158.308594 C 214.160156 159.101562 216.367188 159.941406 219.464844 159.980469 C 219.492188 159.980469 219.515625 159.980469 219.542969 159.980469 C 221.378906 159.980469 223.515625 159.554688 225.429688 158.582031 C 230.109375 156.21875 233.390625 152.355469 235.410156 148.253906 C 237.4375 144.117188 238.359375 139.636719 238.367188 135.109375 C 238.347656 128.441406 236.347656 121.457031 231.523438 115.699219 C 227.050781 110.269531 219.78125 106.515625 211.46875 106.15625 C 211.125 106.117188 210.777344 106.09375 210.421875 106.09375 L 164.585938 106.09375 C 164.234375 106.09375 163.886719 106.117188 163.542969 106.15625 C 155.230469 106.519531 147.960938 110.273438 143.488281 115.699219 C 138.660156 121.457031 136.65625 128.449219 136.636719 135.109375 Z M 136.636719 135.109375 "/></g></svg>