<svg xmlns="http://www.w3.org/2000/svg" xmlns:xlink="http://www.w3.org/1999/xlink" width="500" zoomAndPan="magnify" viewBox="0 0 375 374.999991" height="500" preserveAspectRatio="xMidYMid meet" version="1.2"><defs><clipPath id="0ea047305e"><path d="M 2.578125 0 L 321 0 L 321 176 L 2.578125 176 Z M 2.578125 0 "/></clipPath></defs><g id="5110befd8b"><rect x="0" width="375" y="0" height="374.999991" style="fill:#ffffff;fill-opacity:1;stroke:none;"/><rect x="0" width="375" y="0" height="374.999991" style="fill:#ffffff;fill-opacity:1;stroke:none;"/><g clip-rule="nonzero" clip-path="url(#0ea047305e)"><path style=" stroke:none;fill-rule:nonzero;fill:#000000;fill-opacity:1;" d="M 127.339844 175.449219 L 127.339844 152.988281 C 127.339844 147.871094 131.582031 143.628906 136.699219 143.628906 L 186.605469 143.628906 C 191.71875 143.628906 195.960938 147.871094 195.960938 152.988281 L 195.960938 175.449219 L 292.03125 159.476562 C 308.625 156.730469 320.726562 142.503906 320.726562 125.65625 L 320.726562 84.351562 C 320.726562 65.382812 305.378906 50.03125 286.414062 50.03125 L 245.867188 50.03125 L 245.867188 34.433594 C 245.867188 15.464844 230.519531 0.113281 211.554688 0.113281 L 111.746094 0.113281 C 92.78125 0.113281 77.433594 15.464844 77.433594 34.433594 L 77.433594 50.03125 L 36.886719 50.03125 C 17.921875 50.03125 2.578125 65.382812 2.578125 84.351562 L 2.578125 125.65625 C 2.578125 142.503906 14.679688 156.730469 31.273438 159.476562 Z M 96.148438 34.433594 C 96.148438 25.820312 103.136719 18.832031 111.746094 18.832031 L 211.554688 18.832031 C 220.164062 18.832031 227.152344 25.820312 227.152344 34.433594 L 227.152344 50.03125 L 96.148438 50.03125 Z M 96.148438 34.433594 "/></g><path style=" stroke:none;fill-rule:nonzero;fill:#000000;fill-opacity:1;" d="M 291.53125 209.644531 L 308.25 216.757812 L 308.25 173.953125 C 304.132812 175.824219 299.765625 177.199219 295.148438 177.945312 L 195.710938 194.542969 C 193.714844 211.640625 179.242188 224.746094 161.652344 224.746094 C 144.058594 224.746094 129.585938 211.640625 127.589844 194.542969 C 108.5 191.300781 77.808594 186.183594 28.152344 177.945312 C 23.539062 177.199219 19.171875 175.824219 15.054688 173.953125 L 15.054688 246.585938 C 15.054688 265.554688 30.398438 280.902344 49.363281 280.902344 L 161.277344 280.902344 C 155.910156 267.675781 160.777344 250.578125 175.5 244.214844 C 175.625 244.214844 256.347656 209.644531 256.347656 209.644531 C 267.449219 204.902344 280.425781 204.902344 291.53125 209.644531 Z M 291.53125 209.644531 "/><path style=" stroke:none;fill-rule:nonzero;fill:#000000;fill-opacity:1;" d="M 161.652344 206.027344 C 170.257812 206.027344 177.246094 199.039062 177.246094 190.425781 L 177.246094 162.347656 L 146.054688 162.347656 L 146.054688 190.425781 C 146.054688 199.039062 153.042969 206.027344 161.652344 206.027344 Z M 161.652344 206.027344 "/><path style=" stroke:none;fill-rule:nonzero;fill:#000000;fill-opacity:1;" d="M 364.957031 261.464844 L 284.128906 226.816406 C 277.660156 224.039062 270.222656 224.039062 263.742188 226.816406 C 263.742188 226.816406 183.148438 261.363281 182.917969 261.464844 C 175.578125 264.613281 175.578125 275.527344 182.917969 278.671875 L 263.746094 313.320312 C 270.199219 316.09375 277.683594 316.085938 284.136719 313.320312 C 284.136719 313.320312 364.671875 278.796875 364.957031 278.671875 C 372.324219 275.515625 372.324219 264.621094 364.957031 261.464844 Z M 364.957031 261.464844 "/><path style=" stroke:none;fill-rule:nonzero;fill:#000000;fill-opacity:1;" d="M 256.347656 330.570312 C 256.332031 330.566406 199.082031 305.988281 199.082031 305.988281 L 199.082031 339.804688 C 199.082031 343.050781 200.703125 345.921875 203.445312 347.667969 C 245.992188 374.875 301.886719 374.875 344.429688 347.667969 C 347.175781 345.921875 348.796875 343.050781 348.796875 339.804688 L 348.796875 305.988281 L 291.53125 330.570312 C 280.566406 335.296875 267.308594 335.277344 256.347656 330.570312 Z M 256.347656 330.570312 "/></g></svg>