<svg xmlns="http://www.w3.org/2000/svg" xmlns:xlink="http://www.w3.org/1999/xlink" width="500" zoomAndPan="magnify" viewBox="0 0 375 374.999991" height="500" preserveAspectRatio="xMidYMid meet" version="1.2"><defs><clipPath id="d5076844f0"><path d="M 0 15.234375 L 375 15.234375 L 375 359.484375 L 0 359.484375 Z M 0 15.234375 "/></clipPath></defs><g id="e1a46c2574"><rect x="0" width="375" y="0" height="374.999991" style="fill:#ffffff;fill-opacity:1;stroke:none;"/><rect x="0" width="375" y="0" height="374.999991" style="fill:#ffffff;fill-opacity:1;stroke:none;"/><g clip-rule="nonzero" clip-path="url(#d5076844f0)"><path style=" stroke:none;fill-rule:evenodd;fill:#000000;fill-opacity:1;" d="M 4.464844 359.464844 L 170.261719 359.464844 C 172.679688 359.464844 174.503906 357.328125 174.121094 354.945312 C 167.425781 313.097656 131.136719 281.121094 87.375 281.117188 C 111.90625 281.113281 131.789062 261.238281 131.789062 236.726562 C 131.789062 212.210938 111.902344 192.335938 87.363281 192.335938 C 62.828125 192.335938 42.9375 212.210938 42.9375 236.726562 C 42.9375 261.238281 62.824219 281.109375 87.355469 281.117188 C 43.589844 281.121094 7.304688 313.097656 0.605469 354.945312 C 0.226562 357.332031 2.050781 359.464844 4.464844 359.464844 Z M 200.628906 86.363281 C 206.5625 87.816406 212.234375 90.167969 217.457031 93.332031 C 217.679688 93.46875 217.9375 93.488281 218.179688 93.378906 L 228.730469 88.695312 C 229.03125 88.5625 229.367188 88.625 229.601562 88.859375 L 242.296875 101.542969 C 242.53125 101.777344 242.59375 102.113281 242.460938 102.414062 L 237.777344 112.953125 C 237.667969 113.195312 237.683594 113.449219 237.820312 113.675781 C 240.988281 118.894531 243.34375 124.566406 244.800781 130.492188 C 244.863281 130.75 245.03125 130.941406 245.277344 131.039062 L 256.042969 135.179688 C 256.351562 135.296875 256.542969 135.578125 256.542969 135.910156 L 256.542969 153.847656 C 256.542969 154.179688 256.351562 154.460938 256.042969 154.578125 L 245.273438 158.722656 C 245.027344 158.816406 244.859375 159.007812 244.796875 159.265625 C 243.34375 165.191406 240.988281 170.859375 237.820312 176.078125 C 237.683594 176.300781 237.667969 176.558594 237.773438 176.800781 L 242.460938 187.34375 C 242.59375 187.644531 242.53125 187.980469 242.296875 188.214844 L 229.601562 200.902344 C 229.367188 201.132812 229.03125 201.195312 228.730469 201.0625 L 218.183594 196.382812 C 217.941406 196.273438 217.683594 196.289062 217.460938 196.425781 C 212.238281 199.59375 206.5625 201.945312 200.628906 203.398438 C 200.371094 203.460938 200.179688 203.632812 200.085938 203.878906 L 195.941406 214.632812 C 195.820312 214.941406 195.539062 215.132812 195.210938 215.132812 L 177.253906 215.132812 C 176.925781 215.132812 176.640625 214.941406 176.523438 214.632812 L 172.378906 203.875 C 172.285156 203.628906 172.09375 203.457031 171.835938 203.394531 C 165.902344 201.941406 160.230469 199.589844 155.007812 196.425781 C 154.785156 196.289062 154.527344 196.273438 154.285156 196.378906 L 143.734375 201.0625 C 143.433594 201.195312 143.097656 201.132812 142.863281 200.898438 L 130.164062 188.214844 C 129.929688 187.980469 129.867188 187.644531 130.003906 187.34375 L 134.6875 176.804688 C 134.796875 176.5625 134.78125 176.304688 134.640625 176.078125 C 131.472656 170.863281 129.121094 165.191406 127.664062 159.261719 C 127.601562 159.007812 127.433594 158.8125 127.183594 158.71875 L 116.421875 154.578125 C 116.113281 154.460938 115.921875 154.179688 115.921875 153.847656 L 115.921875 135.90625 C 115.921875 135.578125 116.113281 135.296875 116.421875 135.175781 L 127.1875 131.035156 C 127.433594 130.941406 127.601562 130.75 127.667969 130.492188 C 129.121094 124.566406 131.476562 118.898438 134.640625 113.679688 C 134.78125 113.453125 134.796875 113.199219 134.6875 112.957031 L 130.003906 102.414062 C 129.867188 102.113281 129.929688 101.777344 130.164062 101.542969 L 142.859375 88.855469 C 143.09375 88.625 143.429688 88.5625 143.730469 88.695312 L 154.285156 93.378906 C 154.527344 93.484375 154.78125 93.46875 155.007812 93.332031 C 160.230469 90.167969 165.902344 87.816406 171.832031 86.363281 C 172.089844 86.296875 172.28125 86.128906 172.378906 85.882812 L 176.523438 75.125 C 176.640625 74.816406 176.921875 74.625 177.253906 74.625 L 195.207031 74.625 C 195.539062 74.625 195.820312 74.816406 195.941406 75.125 L 200.085938 85.882812 C 200.179688 86.128906 200.375 86.300781 200.628906 86.363281 Z M 186.234375 111.996094 C 168.054688 111.996094 153.320312 126.71875 153.320312 144.878906 C 153.320312 163.042969 168.054688 177.765625 186.234375 177.765625 C 204.410156 177.765625 219.144531 163.042969 219.144531 144.878906 C 219.144531 126.71875 204.410156 111.996094 186.234375 111.996094 Z M 17.621094 20.136719 C 8.59375 20.136719 1.207031 27.515625 1.207031 36.535156 L 1.207031 116.5625 C 1.207031 125.582031 8.59375 132.960938 17.621094 132.960938 L 28.824219 132.960938 L 55.519531 159.972656 C 56.503906 160.96875 58.195312 160.273438 58.195312 158.875 L 58.195312 132.960938 L 103.757812 132.960938 C 104.722656 128.714844 107.742188 125.140625 111.933594 123.527344 L 117.304688 121.460938 C 118.320312 118.480469 119.527344 115.566406 120.921875 112.742188 L 118.585938 107.484375 C 116.363281 102.484375 117.460938 96.585938 121.332031 92.71875 L 134.027344 80.03125 C 137.394531 76.667969 142.300781 75.402344 146.808594 76.585938 L 146.808594 36.535156 C 146.808594 27.515625 139.425781 20.136719 130.398438 20.136719 Z M 75.382812 111.914062 C 71.929688 111.914062 69.132812 109.121094 69.132812 105.671875 C 69.132812 102.226562 71.929688 99.429688 75.382812 99.429688 C 78.832031 99.429688 81.628906 102.226562 81.628906 105.671875 C 81.628906 109.121094 78.832031 111.914062 75.382812 111.914062 Z M 74.007812 34.726562 C 88.464844 34.726562 100.191406 46.4375 100.191406 60.886719 C 100.191406 76.640625 82.257812 80.363281 81.660156 90.5625 C 81.457031 93.996094 78.507812 96.617188 75.070312 96.414062 C 71.632812 96.210938 69.011719 93.261719 69.214844 89.828125 C 70.167969 73.636719 87.695312 68.585938 87.695312 60.886719 C 87.695312 53.332031 81.566406 47.210938 74.007812 47.210938 C 66.449219 47.210938 60.320312 53.332031 60.320312 60.886719 C 60.320312 64.332031 57.523438 67.128906 54.074219 67.128906 C 50.625 67.128906 47.828125 64.332031 47.828125 60.886719 C 47.828125 46.4375 59.550781 34.726562 74.007812 34.726562 Z M 348.363281 40.207031 C 351.8125 40.207031 354.609375 43 354.609375 46.449219 C 354.609375 49.894531 351.8125 52.691406 348.363281 52.691406 L 205.539062 52.691406 C 202.089844 52.691406 199.292969 49.894531 199.292969 46.449219 C 199.292969 43 202.089844 40.207031 205.539062 40.207031 Z M 358.480469 15.253906 L 195.417969 15.253906 C 186.425781 15.253906 179.066406 22.605469 179.066406 31.589844 L 179.066406 62.140625 L 195.210938 62.140625 C 198.28125 62.140625 201.171875 63.195312 203.46875 65.015625 L 203.460938 65.011719 C 204.113281 64.78125 204.8125 64.65625 205.539062 64.65625 L 348.363281 64.65625 C 351.8125 64.65625 354.609375 67.453125 354.609375 70.898438 C 354.609375 74.347656 351.8125 77.140625 348.363281 77.140625 L 234.078125 77.140625 C 235.679688 77.792969 237.167969 78.761719 238.4375 80.03125 L 247.519531 89.105469 L 348.363281 89.105469 C 351.8125 89.105469 354.609375 91.902344 354.609375 95.347656 C 354.609375 98.796875 351.8125 101.589844 348.363281 101.589844 L 255.003906 101.589844 C 255.085938 103.578125 254.71875 105.59375 253.878906 107.484375 L 251.542969 112.738281 C 252.9375 115.5625 254.148438 118.480469 255.164062 121.464844 L 260.53125 123.527344 C 262.796875 124.398438 264.722656 125.84375 266.164062 127.660156 L 318.054688 127.660156 L 318.054688 153.460938 C 318.054688 154.859375 319.75 155.554688 320.734375 154.558594 L 347.316406 127.660156 L 358.480469 127.660156 C 367.472656 127.660156 374.832031 120.308594 374.832031 111.320312 L 374.832031 31.59375 C 374.832031 22.605469 367.476562 15.253906 358.480469 15.253906 Z M 212.769531 77.140625 C 214.679688 77.886719 216.554688 78.714844 218.394531 79.621094 L 223.660156 77.289062 C 223.773438 77.238281 223.890625 77.1875 224.003906 77.140625 Z M 285.101562 192.339844 C 260.566406 192.339844 240.675781 212.210938 240.675781 236.726562 C 240.675781 261.242188 260.558594 281.113281 285.089844 281.117188 C 241.328125 281.121094 205.039062 313.097656 198.34375 354.945312 C 197.960938 357.332031 199.785156 359.464844 202.203125 359.464844 L 368 359.464844 C 370.414062 359.464844 372.238281 357.332031 371.859375 354.945312 C 365.160156 313.097656 328.875 281.121094 285.109375 281.117188 C 309.640625 281.113281 329.527344 261.242188 329.527344 236.726562 C 329.527344 212.210938 309.636719 192.339844 285.101562 192.339844 Z M 285.101562 192.339844 "/></g></g></svg>